<?xml version="1.0" standalone="no"?>
<!DOCTYPE svg PUBLIC "-//W3C//DTD SVG 20010904//EN"
 "http://www.w3.org/TR/2001/REC-SVG-20010904/DTD/svg10.dtd">
<svg version="1.0" xmlns="http://www.w3.org/2000/svg"
 width="512.000000pt" height="512.000000pt" viewBox="0 0 512.000000 512.000000"
 preserveAspectRatio="xMidYMid meet">
<metadata>
Created by potrace 1.11, written by Peter Selinger 2001-2013
</metadata>
<g transform="translate(0.000000,512.000000) scale(0.100000,-0.100000)"
fill="#000000" stroke="none">
<path d="M2454 4802 c-34 -10 -82 -30 -107 -45 -36 -21 -464 -352 -992 -766
-27 -22 -180 -141 -340 -266 -159 -124 -297 -231 -305 -238 -8 -7 -56 -43
-105 -82 -50 -38 -92 -72 -95 -75 -3 -4 -23 -20 -45 -36 -96 -69 -302 -234
-321 -256 -62 -73 -54 -199 17 -268 60 -57 163 -76 230 -42 29 15 201 142 219
162 3 3 34 28 70 56 92 71 572 446 590 461 45 37 891 699 996 780 29 22 96 75
148 116 98 77 147 98 186 77 12 -6 420 -304 908 -662 1271 -934 1219 -897
1258 -904 157 -29 289 106 250 256 -21 82 -10 72 -486 419 -124 90 -229 168
-234 172 -5 4 -9 182 -10 396 -1 420 0 414 -57 447 -23 14 -67 16 -299 16
-238 0 -276 -2 -301 -17 -15 -9 -32 -24 -36 -32 -4 -9 -10 -78 -13 -153 l-5
-136 -310 230 c-411 304 -479 351 -548 377 -83 30 -187 35 -263 13z"/>
<path d="M2498 4045 c-39 -10 -120 -65 -318 -215 -14 -10 -104 -78 -200 -149
-96 -72 -179 -134 -185 -139 -5 -4 -37 -28 -70 -52 -78 -57 -903 -673 -1020
-761 l-91 -68 1 -1058 1 -1058 25 -56 c41 -87 122 -155 207 -174 42 -9 3382
-9 3425 0 101 22 193 113 222 220 13 46 13 2114 0 2130 -7 10 -550 418 -966
728 -13 10 -210 157 -437 326 -228 170 -426 314 -442 321 -40 16 -100 19 -152
5z"/>
</g>
</svg>
